<svg xmlns="http://www.w3.org/2000/svg" xmlns:xlink="http://www.w3.org/1999/xlink" width="350.80709" height="509.14517" viewBox="0 0 380 470" role="img" artist="Katerina Limpitsouni" source="https://undraw.co/"><path d="M216.09567,704.318l-.95117-1.75879c12.75342-6.89746,28.62573-15.481,36.916-29.56738,8.17236-13.88623,8.35571-32.74268.47851-49.21094-6.70361-14.01562-19.01782-26.57226-35.61108-36.313-3.273-1.92138-6.70874-3.74218-10.0315-5.50341-8.03149-4.25635-16.33642-8.65821-23.18432-14.90284-9.43164-8.60107-16.56787-23.03466-11.249-35.89111a23.85567,23.85567,0,0,1,20.6775-14.46728l.11279,1.99707a21.86061,21.86061,0,0,0-18.94776,13.248c-4.94262,11.94727,1.83863,25.50489,10.75415,33.63574,6.66065,6.07374,14.85181,10.415,22.7732,14.61329,3.34155,1.771,6.79712,3.60254,10.10766,5.54589,16.93848,9.94336,29.52637,22.79786,36.40259,37.17432,8.1604,17.06055,7.94629,36.63672-.55908,51.08887C245.2114,688.57244,229.0676,697.30339,216.09567,704.318Z" transform="translate(-148.09646 -195.42742)" fill="#f1f1f1"/><ellipse cx="57.71992" cy="323.31703" rx="17.5" ry="8.5" fill="#f1f1f1"/><ellipse cx="71.71992" cy="379.31703" rx="17.5" ry="8.5" fill="#f1f1f1"/><ellipse cx="39.71992" cy="388.31703" rx="17.5" ry="8.5" fill="#f1f1f1"/><ellipse cx="89.71992" cy="435.31703" rx="17.5" ry="8.5" fill="#f1f1f1"/><ellipse cx="124.71992" cy="435.31703" rx="17.5" ry="8.5" fill="#f1f1f1"/><polygon points="163.436 496.698 175.696 496.697 181.528 449.409 163.434 449.41 163.436 496.698" fill="#a0616a"/><path d="M308.40551,688.12252l24.144-.001h.001A15.38731,15.38731,0,0,1,347.937,703.50777v.5l-39.53076.00147Z" transform="translate(-148.09646 -195.42742)" fill="#2f2e41"/><polygon points="209.436 496.698 221.696 496.697 227.528 449.409 209.434 449.41 209.436 496.698" fill="#a0616a"/><path d="M354.40551,688.12252l24.144-.001h.001A15.38731,15.38731,0,0,1,393.937,703.50777v.5l-39.53076.00147Z" transform="translate(-148.09646 -195.42742)" fill="#2f2e41"/><path d="M274.333,505.26744a10.05579,10.05579,0,0,0-1.88328-15.30389l8.51818-34.70475-17.49238,6.233-5.40724,32.00063a10.11028,10.11028,0,0,0,16.26472,11.775Z" transform="translate(-148.09646 -195.42742)" fill="#9e616a"/><path d="M404.47409,502.26744a10.05576,10.05576,0,0,1,1.88329-15.30389L397.8392,452.2588l17.49238,6.233,5.40723,32.00063a10.11027,10.11027,0,0,1-16.26472,11.775Z" transform="translate(-148.09646 -195.42742)" fill="#9e616a"/><polygon points="142.367 285.513 159.36 484.578 184.224 482.311 194.175 328.461 203.033 389.379 204.807 486.145 227.307 484.645 239.801 380.545 236.736 279.728 151.319 271.078 142.367 285.513" fill="#2f2e41"/><circle cx="189.11211" cy="78.58245" r="25.78574" fill="#a0616a"/><path d="M329.04308,253.38125s12.03336,3.22321,18.26491,4.51252,5.58691-2.36371,5.58691-2.36371,8.1655,1.0744,7.73572.21487,3.43809-5.372-1.0744-10.52917-3.22322-9.025-3.22322-9.025h-3.86786l-1.07442-1.50418H345.374s-6.652-5.833-18.4705-4.114-25.79505,6.26281-27.08434,13.3539c-.17487.96182-.4051,2.03038-.67243,3.159-3.23171,13.64365,3.63487,26.40934,10.75677,38.48707,1.75029,2.96823,10.21656,9.44074,10,5s-7.62122-14.41389-2.46407-15.05854S331.40677,261.76163,329.04308,253.38125Z" transform="translate(-148.09646 -195.42742)" fill="#2f2e41"/><path d="M310.376,308.60391h45.41173l32.10968,169.575s-27.99385,2.3937-43.99385,8.3937-42.59842-13.70585-42.59842-13.70585Z" transform="translate(-148.09646 -195.42742)" fill="#6c63ff"/><path d="M316.04528,327.75369V308.60391l-5.14174-.03133-37.56693,23.885,8.15165,130.86273s9.64794,43.65782,24.28161,43.20506S331.687,350.43479,316.04528,327.75369Z" transform="translate(-148.09646 -195.42742)" fill="#2f2e41"/><path d="M285.40354,336.07258l-12.06693-3.615s-8.93307,2.615-8.93307,11.615-7.69685,136.86794-7.69685,136.86794l24.45076,2.16092,5.24609-65.02886Z" transform="translate(-148.09646 -195.42742)" fill="#2f2e41"/><path d="M352.40354,321.07258l-2.40535-12.46867,6.90535-1.03133,25,10s22.5,164.5,12.5,169.5-16.752,1.12615-16.752,1.12615S344.76032,366.8726,350.58193,350.47259Z" transform="translate(-148.09646 -195.42742)" fill="#2f2e41"/><path d="M364.40354,320.07258l4.26656-1.85711s12.52311-6.20565,19.62828,6.32573,32.10516,152.53138,32.10516,152.53138l-20.57029,3.86794-15.37853-50.38368Z" transform="translate(-148.09646 -195.42742)" fill="#2f2e41"/><path d="M530.09646,704.57258h-381a1,1,0,1,1,0-2h381a1,1,0,0,1,0,2Z" transform="translate(-148.09646 -195.42742)" fill="#cacaca"/></svg>